<?xml version="1.0" standalone="no"?>
<!DOCTYPE svg PUBLIC "-//W3C//DTD SVG 20010904//EN"
 "http://www.w3.org/TR/2001/REC-SVG-20010904/DTD/svg10.dtd">
<svg version="1.0" xmlns="http://www.w3.org/2000/svg"
 width="500.000000pt" height="500.000000pt" viewBox="0 0 500.000000 500.000000"
 preserveAspectRatio="xMidYMid meet">

<g transform="translate(0.000000,500.000000) scale(0.100000,-0.100000)"
fill="#000000" stroke="none">
<path d="M760 2465 l0 -515 1965 0 1965 0 0 515 0 515 -1965 0 -1965 0 0 -515z
m3900 0 l0 -485 -1940 0 -1940 0 0 485 0 485 1940 0 1940 0 0 -485z"/>
<path d="M850 2500 l0 -390 1050 0 1050 0 0 390 0 390 -1050 0 -1050 0 0 -390z
m1688 115 c12 -14 22 -33 22 -41 0 -22 -31 -17 -37 6 -9 35 -86 44 -110 13
-20 -26 2 -50 60 -67 63 -18 87 -41 87 -84 0 -41 -31 -62 -93 -62 -38 0 -53 5
-72 25 -26 25 -33 55 -14 55 6 0 20 -11 31 -25 35 -45 126 -28 116 22 -2 12
-25 25 -68 40 -66 23 -90 43 -90 74 0 32 13 51 44 65 43 20 96 10 124 -21z
m-1417 -12 c25 -24 33 -42 36 -80 8 -91 -51 -143 -162 -143 l-55 0 0 131 0
131 75 -4 c68 -3 78 -6 106 -35z m289 22 c0 -12 -14 -15 -65 -15 l-65 0 0 -40
0 -40 60 0 c47 0 60 -3 60 -15 0 -12 -13 -15 -60 -15 l-60 0 0 -45 0 -45 65 0
c51 0 65 -3 65 -15 0 -12 -16 -15 -80 -15 l-80 0 0 130 0 130 80 0 c64 0 80
-3 80 -15z m136 -85 c21 -55 41 -100 45 -100 3 0 24 45 45 100 29 73 44 100
56 100 16 0 16 -4 -3 -52 -12 -29 -35 -88 -52 -130 -20 -52 -35 -78 -46 -78
-11 0 -32 40 -68 130 -45 113 -49 130 -33 130 14 0 27 -24 56 -100z m400 -32
c45 -110 50 -128 34 -128 -10 0 -23 12 -30 30 -12 29 -15 30 -77 30 -62 0 -64
-1 -74 -30 -7 -19 -18 -30 -29 -30 -20 0 -23 -11 76 228 24 58 42 39 100 -100z
m229 31 l70 -101 3 101 c2 81 6 101 17 101 12 0 15 -22 15 -130 0 -166 -8
-168 -105 -28 l-70 101 -3 -101 c-2 -82 -6 -102 -17 -102 -12 0 -15 22 -15
130 0 166 8 168 105 29z m515 46 l0 -55 70 0 70 0 0 55 c0 42 3 55 15 55 13 0
15 -21 15 -130 0 -109 -2 -130 -15 -130 -12 0 -15 13 -15 60 l0 60 -70 0 -70
0 0 -60 c0 -47 -3 -60 -15 -60 -13 0 -15 21 -15 130 0 109 2 130 15 130 12 0
15 -13 15 -55z"/>
<path d="M970 2509 l0 -102 50 5 c83 8 123 63 100 134 -14 41 -53 64 -110 64
l-40 0 0 -101z"/>
<path d="M1852 2541 c-12 -30 -22 -58 -22 -62 0 -5 20 -9 45 -9 52 0 53 4 21
74 l-22 50 -22 -53z"/>
<path d="M3180 2510 l0 -130 70 0 c120 0 180 42 180 127 0 95 -49 133 -174
133 l-76 0 0 -130z m165 36 c30 -46 -1 -96 -59 -96 -25 0 -26 2 -26 60 l0 60
35 0 c25 0 39 -6 50 -24z"/>
<path d="M3470 2554 c0 -121 22 -161 98 -177 35 -8 89 11 112 40 17 22 20 40
20 124 l0 99 -35 0 -35 0 0 -84 c0 -91 -10 -110 -52 -104 -22 3 -23 8 -26 96
l-3 92 -39 0 -40 0 0 -86z"/>
<path d="M3760 2510 l0 -130 75 0 c47 0 87 6 104 15 46 23 54 65 21 100 -18
20 -19 23 -5 35 16 13 20 57 7 76 -15 24 -54 34 -126 34 l-76 0 0 -130z m127
69 c18 -18 3 -39 -28 -39 -24 0 -29 4 -29 25 0 19 5 25 23 25 13 0 28 -5 34
-11z m-3 -95 c9 -3 16 -15 16 -25 0 -15 -7 -19 -35 -19 -31 0 -35 3 -35 25 0
26 19 32 54 19z"/>
<path d="M4020 2510 l0 -130 90 0 90 0 0 30 c0 30 -1 30 -55 30 -48 0 -55 2
-55 20 0 17 7 20 50 20 49 0 50 1 50 30 0 29 -1 30 -50 30 -43 0 -50 3 -50 20
0 18 7 20 55 20 54 0 55 0 55 30 l0 30 -90 0 -90 0 0 -130z"/>
<path d="M4230 2633 c0 -5 20 -43 45 -87 35 -60 45 -89 45 -122 0 -44 0 -44
35 -44 35 0 35 0 35 44 0 33 11 63 45 124 25 44 45 83 45 86 0 3 -18 6 -40 6
-38 0 -42 -3 -62 -45 l-22 -46 -23 46 c-22 42 -26 45 -63 45 -22 0 -40 -3 -40
-7z"/>
</g>
</svg>
